<svg width="20" height="20" viewBox="0 0 20 20" fill="none" xmlns="http://www.w3.org/2000/svg">
<g id="moon 1">
<path id="Vector" fill-rule="evenodd" fill="currentColor" clip-rule="evenodd" d="M10 16.875C11.5726 16.8757 13.098 16.3373 14.3216 15.3494C15.5453 14.3616 16.3933 12.9841 16.7242 11.4466C17.0551 9.9092 16.8489 8.30479 16.1401 6.90099C15.4312 5.49718 14.2624 4.37885 12.8287 3.7325C13.4047 5.00568 13.579 6.42414 13.3284 7.79888C13.0779 9.17362 12.4143 10.4394 11.4262 11.4275C10.4381 12.4156 9.17237 13.0791 7.79763 13.3297C6.42289 13.5803 5.00443 13.406 3.73125 12.83C4.27613 14.036 5.15741 15.0591 6.26936 15.7766C7.3813 16.4941 8.67666 16.8755 10 16.875ZM1.30625 10.9937C1.49299 12.6293 2.13727 14.179 3.16509 15.4649C4.1929 16.7508 5.56257 17.7208 7.11679 18.2633C8.671 18.8059 10.3467 18.899 11.9515 18.5321C13.5563 18.1652 15.025 17.3531 16.1891 16.1891C17.3531 15.025 18.1652 13.5563 18.5321 11.9515C18.899 10.3467 18.8059 8.671 18.2633 7.11679C17.7208 5.56257 16.7508 4.1929 15.4649 3.16509C14.179 2.13727 12.6293 1.49299 10.9937 1.30625L10.9587 1.3025C10.6404 1.26766 10.3203 1.25013 10 1.25C9.34125 1.25 9.2625 2.3025 9.76875 2.725C9.91897 2.85072 10.0617 2.98512 10.1962 3.1275C10.6557 3.61415 11.0128 4.18809 11.2464 4.81531C11.48 5.44253 11.5852 6.11025 11.5559 6.7789C11.5267 7.44755 11.3634 8.10352 11.0759 8.70792C10.7884 9.31232 10.3825 9.85284 9.88223 10.2975C9.38196 10.7421 8.79752 11.0817 8.16355 11.2963C7.52957 11.5108 6.85898 11.5959 6.19151 11.5465C5.52405 11.4971 4.8733 11.3141 4.27784 11.0086C3.68238 10.703 3.15433 10.2809 2.725 9.7675C2.3025 9.2625 1.25 9.3425 1.25 10C1.25013 10.3316 1.26891 10.663 1.30625 10.9925V10.9937Z"/>
</g>
</svg>
